<?xml version="1.0" standalone="no"?>
<!DOCTYPE svg PUBLIC "-//W3C//DTD SVG 20010904//EN"
 "http://www.w3.org/TR/2001/REC-SVG-20010904/DTD/svg10.dtd">
<svg version="1.0" xmlns="http://www.w3.org/2000/svg"
 width="512.000000pt" height="512.000000pt" viewBox="0 0 512.000000 512.000000"
 preserveAspectRatio="xMidYMid meet">

<g transform="translate(0.000000,512.000000) scale(0.100000,-0.100000)"
fill="#000000" stroke="none">
<path d="M2025 5049 c-82 -11 -165 -34 -215 -59 -19 -9 -53 -21 -75 -24 -86
-16 -307 -153 -444 -276 -33 -30 -94 -93 -135 -140 -143 -166 -214 -287 -241
-416 -18 -85 -18 -96 -2 -118 12 -17 15 -17 51 3 21 12 48 34 61 49 24 28 132
88 142 78 3 -3 -1 -22 -10 -43 -40 -102 -33 -177 26 -266 38 -56 42 -67 39
-117 -2 -41 2 -66 18 -95 17 -34 20 -51 14 -105 -5 -50 -2 -75 10 -105 25 -60
55 -87 86 -80 25 5 29 1 62 -67 19 -40 42 -79 51 -87 9 -7 30 -50 48 -94 38
-100 67 -141 110 -153 31 -9 35 -16 75 -124 22 -63 44 -122 48 -132 6 -12 -4
-24 -36 -46 -93 -63 -219 -111 -385 -146 -70 -15 -245 -81 -353 -134 -46 -23
-57 -33 -68 -67 -21 -63 -26 -213 -13 -377 13 -151 12 -154 -13 -258 -14 -58
-35 -166 -46 -239 -34 -220 -56 -317 -109 -482 -27 -85 -56 -191 -64 -235 -17
-86 -43 -342 -36 -348 2 -3 16 -7 31 -11 26 -7 27 -5 31 42 l3 48 2 -48 c2
-44 5 -49 35 -61 80 -34 516 -134 656 -151 288 -36 396 -47 561 -61 107 -8
236 -17 285 -18 50 -2 125 -7 167 -11 57 -6 82 -4 93 5 10 8 15 9 15 1 0 -7
20 -11 50 -11 38 0 57 5 73 21 33 31 122 79 146 79 32 0 26 -28 -15 -66 l-35
-34 48 0 c95 0 728 47 883 66 313 38 576 87 770 144 58 17 115 34 127 37 18 4
23 15 29 72 5 36 8 262 9 501 0 455 -3 505 -50 790 -41 249 -58 409 -60 570
-2 176 -9 215 -40 236 -12 8 -78 25 -146 38 -68 13 -155 36 -194 51 -258 99
-370 127 -580 146 -71 7 -144 17 -162 23 -18 6 -72 50 -121 98 l-89 87 -6 116
c-3 65 -2 113 3 110 13 -8 30 -74 30 -117 0 -21 4 -38 10 -38 19 0 29 39 36
141 6 87 9 99 17 74 13 -39 16 -42 27 -25 26 41 1 192 -39 234 l-20 22 34 92
c41 107 44 165 18 304 -15 84 -15 91 0 100 10 5 17 18 17 29 0 22 -48 99 -61
99 -5 0 -9 16 -9 36 0 40 -10 61 -57 123 -38 51 -47 80 -66 216 -8 56 -24 119
-35 141 -19 38 -66 86 -107 109 -13 8 -19 29 -24 81 -7 81 -25 114 -79 148
-52 32 -215 83 -342 107 -123 23 -364 32 -465 18z m390 -33 c115 -18 174 -31
255 -58 146 -47 200 -93 200 -169 0 -33 -2 -36 -24 -32 -13 3 -36 -2 -52 -10
-28 -14 -28 -14 -55 27 -43 69 -167 136 -248 136 -18 0 0 -11 53 -35 107 -47
197 -135 180 -179 -4 -12 -13 -9 -47 14 -43 30 -117 50 -117 32 0 -5 20 -17
44 -26 24 -9 52 -26 61 -36 18 -19 17 -20 -11 -20 -50 1 -117 20 -192 56 -64
31 -79 44 -127 108 -93 126 -153 165 -285 183 -53 7 -54 7 -20 14 64 12 294 9
385 -5z m-311 -52 c85 -21 134 -51 173 -104 80 -109 114 -140 201 -183 l87
-42 135 -1 c190 -1 181 0 171 -26 -4 -11 -34 -42 -67 -69 l-59 -47 -26 19
c-64 45 -281 72 -394 49 -253 -51 -290 -56 -309 -41 -8 7 -17 40 -21 79 -5 48
-13 74 -29 90 -93 103 -374 109 -561 14 -44 -22 -85 -36 -85 -29 0 10 165 133
226 170 94 57 202 105 284 127 84 23 168 21 274 -6z m-263 -240 c30 -9 68 -27
85 -39 28 -22 32 -31 38 -93 6 -55 12 -74 31 -92 22 -21 31 -22 87 -17 35 3
99 16 143 28 64 18 109 22 230 23 84 1 157 -3 167 -9 12 -7 -19 -10 -105 -10
-130 -1 -119 2 -337 -80 -60 -23 -96 -29 -182 -33 -95 -4 -112 -2 -153 18 -32
15 -52 34 -65 60 -40 78 -125 117 -274 127 -107 6 -187 -7 -257 -41 -27 -14
-49 -21 -49 -16 0 13 54 55 86 68 90 34 216 82 264 100 70 26 212 29 291 6z
m1024 -29 l30 -24 -67 -1 c-38 0 -68 2 -68 5 0 6 62 45 70 45 3 0 19 -11 35
-25z m127 -95 c11 -16 28 -76 43 -155 27 -148 29 -154 67 -214 15 -25 28 -49
28 -53 0 -15 -75 -8 -99 8 -30 22 -67 105 -76 174 -7 54 -50 169 -69 181 -12
9 55 90 73 86 8 -1 22 -13 33 -27z m-1424 -30 c98 -16 148 -44 187 -105 29
-45 42 -56 92 -75 50 -19 72 -21 158 -17 85 4 115 10 195 42 150 58 241 78
340 73 74 -4 130 -20 130 -38 0 -3 -15 -15 -34 -27 -31 -20 -35 -20 -49 -5
-24 23 -121 27 -194 8 -34 -8 -106 -36 -160 -61 -199 -94 -378 -135 -453 -103
-19 9 -63 40 -97 71 -75 67 -140 93 -265 105 -133 14 -229 -2 -327 -52 -40
-21 -39 -14 5 39 63 77 161 125 299 145 74 11 103 11 173 0z m1321 -118 c6
-12 21 -63 31 -114 26 -121 51 -170 95 -191 40 -19 97 -22 125 -7 13 7 21 7
25 0 9 -14 -53 -72 -101 -95 -32 -15 -44 -16 -90 -6 -74 17 -97 54 -105 171
-7 98 -39 175 -89 210 l-31 22 28 21 c16 12 37 29 47 39 18 16 20 16 36 -5 9
-12 22 -32 29 -45z m-184 20 c-3 -3 -11 0 -18 7 -9 10 -8 11 6 5 10 -3 15 -9
12 -12z m-1227 -77 c77 -8 149 -45 214 -108 67 -65 93 -73 204 -63 77 6 192
46 394 136 70 32 112 44 162 48 71 5 118 -2 118 -18 0 -14 -167 -96 -285 -140
-55 -21 -143 -47 -196 -59 -84 -18 -108 -19 -185 -10 -49 5 -118 17 -154 25
-111 26 -236 34 -376 24 -183 -14 -290 -54 -377 -142 -52 -52 -72 -51 -63 5
17 109 71 197 149 246 36 22 136 50 217 61 54 7 73 6 178 -5z m1290 -20 c45
-38 56 -74 47 -153 -5 -37 -9 -106 -9 -153 -1 -76 2 -92 29 -144 19 -38 46
-72 75 -93 65 -50 90 -88 90 -136 l-1 -41 -19 37 c-45 83 -59 53 -21 -44 27
-68 43 -131 72 -270 17 -82 5 -194 -32 -297 -41 -115 -45 -135 -28 -129 19 5
76 123 92 187 6 28 15 51 18 51 9 0 19 -98 25 -270 6 -142 5 -160 -15 -211
-22 -57 -91 -167 -144 -229 -112 -131 -282 -290 -310 -290 -105 0 -281 53
-430 129 -134 67 -229 135 -309 219 -91 95 -124 157 -198 371 l-69 198 66 -43
c35 -24 69 -44 74 -44 22 0 5 22 -62 82 -112 99 -151 153 -192 265 -50 138
-61 184 -47 193 8 5 4 29 -15 86 -15 43 -32 87 -37 97 -12 23 -33 99 -54 197
-18 85 -14 171 9 217 15 27 22 31 79 36 71 7 133 0 331 -39 l137 -28 0 -34 c0
-42 27 -102 46 -102 17 0 17 0 -1 43 -8 20 -15 50 -15 67 0 27 3 30 33 30 31
0 34 -3 43 -42 13 -60 32 -60 36 -1 3 46 5 49 42 61 47 15 53 11 32 -20 -9
-12 -16 -26 -16 -30 0 -16 29 -8 43 12 28 41 90 81 114 75 14 -3 33 1 46 10
12 8 28 15 37 15 13 0 13 -1 0 -10 -19 -12 -13 -12 28 -1 25 8 32 7 32 -5 0
-11 17 -14 80 -14 44 0 80 4 80 9 0 12 -37 21 -89 21 -37 0 -42 2 -31 15 13
15 12 16 -27 27 -16 4 257 147 284 147 12 1 35 -10 51 -24z m-1433 -202 c-27
-64 -36 -112 -30 -160 6 -46 3 -57 -19 -86 -14 -19 -29 -48 -32 -66 -9 -42
-23 -35 -56 28 -34 66 -36 121 -5 211 l22 65 55 12 c75 15 73 15 65 -4z m1559
-133 c73 -63 157 -67 227 -10 21 16 42 30 47 30 11 0 62 -64 62 -77 -1 -21
-57 -67 -125 -105 -64 -34 -83 -40 -117 -35 -51 7 -89 43 -119 111 -19 44 -35
126 -24 126 2 0 24 -18 49 -40z m-1564 -144 c0 -14 5 -37 10 -52 9 -23 7 -33
-10 -56 -12 -16 -32 -52 -45 -81 -18 -38 -26 -47 -31 -34 -6 17 -5 25 15 122
20 93 61 161 61 101z m1899 -127 c13 -83 8 -122 -32 -231 -27 -74 -72 -148
-90 -148 -26 0 -36 18 -56 91 -11 41 -25 88 -31 104 l-11 29 27 -27 c15 -15
31 -27 35 -27 13 0 11 34 -2 47 -7 7 -2 15 15 27 43 28 69 91 64 155 -4 49 -2
57 21 77 l25 22 11 -22 c7 -12 17 -56 24 -97z m-122 0 c-7 -53 -42 -123 -58
-113 -5 3 -9 26 -9 52 0 26 -4 54 -9 61 -7 11 -1 19 27 32 54 25 55 24 49 -32z
m-1725 -59 c21 -58 30 -110 19 -110 -4 0 -18 -23 -31 -51 -18 -37 -24 -65 -22
-110 1 -47 -1 -59 -14 -59 -30 0 -45 63 -41 183 3 104 5 115 32 159 17 25 33
43 36 40 3 -4 13 -27 21 -52z m85 -328 c14 -45 43 -112 65 -148 45 -74 112
-264 93 -264 -24 0 -54 47 -74 116 -12 39 -34 89 -50 112 -39 53 -107 188
-116 230 -4 21 -1 50 11 85 l18 52 14 -50 c8 -27 26 -87 39 -133z m1761 -50
l21 -63 -26 21 c-46 36 -52 28 -46 -52 l5 -73 -27 28 c-22 23 -54 105 -55 139
0 4 14 15 30 23 17 9 36 27 42 41 15 33 29 18 56 -64z m-128 -1122 c-25 -102
-99 -342 -109 -352 -4 -5 -27 22 -51 60 -43 66 -171 203 -220 235 l-24 17 121
122 c67 68 144 151 171 185 53 65 121 172 124 194 2 8 4 -74 5 -181 3 -169 1
-205 -17 -280z m1030 290 c8 -5 11 -10 5 -10 -5 0 -17 5 -25 10 -8 5 -10 10
-5 10 6 0 17 -5 25 -10z m-2841 -94 c-2 -2 -15 -9 -29 -15 -24 -11 -24 -11 -6
3 16 13 49 24 35 12z m-224 -104 c-3 -3 -11 0 -18 7 -9 10 -8 11 6 5 10 -3 15
-9 12 -12z m1206 -56 c87 -40 237 -86 282 -86 15 0 9 -11 -30 -54 -54 -59
-111 -160 -138 -246 -10 -30 -21 -59 -25 -63 -4 -5 -23 10 -41 33 -19 23 -48
59 -66 79 -41 48 -51 74 -58 163 -4 40 -11 100 -16 133 -10 65 -11 85 -5 85 1
0 45 -20 97 -44z m-1324 -68 c-2 -13 -4 -3 -4 22 0 25 2 35 4 23 2 -13 2 -33
0 -45z m1729 -53 c38 -16 138 -94 130 -102 -2 -2 -22 5 -45 16 -34 18 -107 46
-171 67 -12 5 -12 8 4 20 25 18 38 18 82 -1z m852 -30 c-3 -3 -9 2 -12 12 -6
14 -5 15 5 6 7 -7 10 -15 7 -18z m879 -27 c-3 -7 -5 -2 -5 12 0 14 2 19 5 13
2 -7 2 -19 0 -25z m-1312 -144 c-19 -177 -51 -363 -109 -634 -45 -211 -63
-285 -65 -265 -35 387 -40 412 -113 587 -49 119 -65 187 -54 231 4 16 28 39
62 63 65 42 59 44 112 -46 32 -56 61 -85 72 -74 15 15 65 144 85 217 10 37 20
66 22 64 2 -2 -4 -66 -12 -143z m-1274 85 c-6 -17 -8 -35 -5 -40 3 -5 0 -9 -5
-9 -6 0 -11 3 -11 6 0 16 24 84 28 80 2 -3 -1 -19 -7 -37z m-874 -76 c-2 -16
-4 -5 -4 22 0 28 2 40 4 28 2 -13 2 -35 0 -50z m1699 6 c75 -28 89 -41 74 -68
-8 -16 -17 -20 -28 -16 -75 32 -123 48 -157 55 -82 15 -99 40 -34 51 43 7 80
1 145 -22z m-770 -17 c-4 -3 -14 2 -24 12 -16 18 -16 18 6 6 13 -6 21 -14 18
-18z m620 -58 c56 -45 70 -69 55 -98 -21 -43 -33 -105 -56 -286 -12 -101 -15
-240 -15 -714 1 -324 -2 -591 -5 -594 -3 -3 -5 2 -5 11 0 104 -77 680 -135
1012 -83 471 -119 695 -113 695 2 0 32 -38 68 -85 36 -46 70 -84 77 -84 14 -1
33 30 33 53 0 20 40 126 47 126 3 0 26 -16 49 -36z m909 -12 c-3 -3 -11 0 -18
7 -9 10 -8 11 6 5 10 -3 15 -9 12 -12z m-1426 -66 c-17 -16 -169 -125 -169
-121 0 6 159 125 168 125 3 0 3 -2 1 -4z m-1022 -63 c-3 -10 -5 -4 -5 12 0 17
2 24 5 18 2 -7 2 -21 0 -30z m2431 -18 c17 -14 35 -25 42 -25 8 0 9 -6 5 -17
-4 -10 -10 -28 -12 -40 -3 -13 -11 -23 -18 -23 -8 0 -29 10 -49 23 -32 20 -35
25 -29 57 10 60 17 62 61 25z m-2448 -62 c-11 -17 -11 -17 -6 0 3 10 7 26 7
35 1 15 2 15 6 0 2 -10 -1 -25 -7 -35z m1788 11 c2 -14 -19 -34 -83 -77 -80
-54 -85 -56 -85 -34 0 34 34 73 94 107 56 33 70 33 74 4z m-1801 -66 c-3 -8
-6 -5 -6 6 -1 11 2 17 5 13 3 -3 4 -12 1 -19z m891 -53 c0 -16 -2 -15 -8 5
-11 34 -11 60 0 35 5 -11 8 -29 8 -40z m-901 3 c-3 -7 -5 -2 -5 12 0 14 2 19
5 13 2 -7 2 -19 0 -25z m-10 -55 c-3 -10 -5 -4 -5 12 0 17 2 24 5 18 2 -7 2
-21 0 -30z m1901 -39 c-2 -20 -21 -37 -85 -77 -45 -29 -103 -67 -129 -84 -55
-38 -64 -40 -64 -14 0 29 79 99 172 154 95 55 111 58 106 21z m-949 -44 c0
-10 -3 -8 -9 5 -12 27 -12 43 0 25 5 -8 9 -22 9 -30z m-1002 -222 c-3 -8 -6
-5 -6 6 -1 11 2 17 5 13 3 -3 4 -12 1 -19z m1994 -56 c-6 -2 -78 -48 -161
-103 -83 -54 -153 -98 -157 -96 -4 1 -6 13 -4 27 4 41 103 120 241 194 l85 45
3 -32 c2 -17 -1 -33 -7 -35z m-2004 6 c-3 -7 -5 -2 -5 12 0 14 2 19 5 13 2 -7
2 -19 0 -25z m-21 -94 c-4 -14 -9 -24 -12 -21 -3 2 -2 17 2 31 3 15 9 25 11
22 3 -3 2 -17 -1 -32z m-26 -71 c-11 -17 -11 -17 -6 0 3 10 6 24 7 30 0 9 2 9
5 0 3 -7 0 -20 -6 -30z m-23 -75 c-3 -8 -6 -5 -6 6 -1 11 2 17 5 13 3 -3 4
-12 1 -19z m2084 -78 c-11 -8 -43 -28 -71 -45 -29 -16 -98 -62 -153 -102 -100
-70 -102 -71 -105 -46 -3 19 7 36 35 65 40 42 165 128 248 172 l50 26 7 -27
c6 -22 4 -31 -11 -43z m-2110 -6 c-5 -16 -10 -21 -10 -12 -1 18 10 51 15 45 2
-1 -1 -16 -5 -33z m-14 -56 c-3 -8 -6 -5 -6 6 -1 11 2 17 5 13 3 -3 4 -12 1
-19z m-13 -77 c-4 -23 -9 -40 -11 -37 -3 3 -2 23 2 46 4 23 9 39 11 37 3 -2 2
-23 -2 -46z m-17 -103 c-2 -13 -4 -5 -4 17 -1 22 1 32 4 23 2 -10 2 -28 0 -40z
m-10 -100 c-2 -13 -4 -3 -4 22 0 25 2 35 4 23 2 -13 2 -33 0 -45z m2133 4 c0
-11 -21 -33 -52 -54 -29 -19 -64 -42 -78 -51 -14 -9 -56 -39 -95 -67 -60 -43
-71 -47 -76 -32 -10 26 -2 37 64 92 52 43 205 130 230 130 4 0 7 -8 7 -18z
m-343 -359 c-3 -10 -5 -4 -5 12 0 17 2 24 5 18 2 -7 2 -21 0 -30z"/>
<path d="M2239 4095 c-73 -45 -129 -126 -129 -186 0 -38 20 -18 53 55 27 56
45 81 82 110 26 20 54 36 62 36 8 0 11 5 8 10 -9 15 -16 13 -76 -25z"/>
<path d="M1637 4034 c-3 -4 1 -17 10 -30 15 -23 7 -33 -12 -15 -20 17 -74 30
-81 19 -4 -6 1 -15 10 -20 29 -16 17 -25 -45 -31 -55 -5 -91 -19 -78 -31 2 -2
20 -6 39 -7 24 -2 34 1 33 9 -4 16 69 16 85 0 18 -18 27 -1 14 27 -15 32 -2
32 32 0 30 -27 46 -32 46 -12 1 6 8 1 16 -13 l15 -25 -5 34 c-4 19 -18 49 -32
68 -25 33 -35 39 -47 27z"/>
<path d="M2305 4007 c-89 -53 -102 -67 -89 -89 5 -7 11 -6 18 3 6 8 30 27 54
43 40 27 46 28 110 21 100 -11 125 -11 129 0 2 6 -30 16 -74 23 -97 15 -123
15 -148 -1z"/>
<path d="M2289 3943 c-52 -26 -96 -79 -101 -122 -3 -21 1 -24 32 -25 74 -4
178 45 219 102 12 17 21 32 21 34 0 5 -58 23 -97 32 -13 2 -46 -7 -74 -21z
m116 -12 l29 -6 -38 -38 c-42 -40 -56 -46 -56 -21 0 9 -6 14 -12 11 -7 -2 -13
-12 -13 -22 0 -10 -6 -20 -13 -23 -6 -2 -12 3 -12 11 0 8 -7 20 -15 27 -20 16
-10 30 21 30 16 0 23 4 18 11 -15 24 28 34 91 20z"/>
<path d="M1546 3891 c-84 -29 -70 -52 19 -31 34 8 48 5 100 -19 34 -16 87 -37
117 -47 41 -14 61 -27 77 -52 26 -39 50 -142 59 -257 5 -61 10 -80 22 -80 34
0 9 237 -35 340 -19 44 -79 98 -101 91 -11 -3 -57 10 -104 30 -47 19 -89 37
-95 39 -5 2 -32 -4 -59 -14z"/>
<path d="M1413 3890 c-13 -5 -23 -14 -23 -19 0 -11 45 4 65 21 12 11 -14 9
-42 -2z"/>
<path d="M2479 3814 c-49 -52 -99 -74 -163 -74 -54 0 -80 -12 -50 -24 67 -26
207 36 246 107 17 32 3 28 -33 -9z"/>
<path d="M1546 3748 c-39 -45 -42 -53 -25 -64 6 -4 27 12 48 36 l36 42 69 -16
c70 -17 131 -43 71 -31 -94 18 -113 18 -149 -5 -44 -26 -66 -57 -66 -88 0 -17
4 -22 15 -18 9 3 19 -3 26 -15 9 -18 17 -20 52 -15 46 8 112 42 141 75 11 12
26 21 34 21 12 0 12 4 -3 20 -18 20 -18 20 13 14 47 -9 40 12 -10 36 -51 23
-152 50 -189 50 -20 0 -38 -12 -63 -42z m189 -62 l30 -12 -45 -33 -45 -32 -8
30 c-4 16 -12 33 -17 36 -39 24 32 34 85 11z m-93 -41 c-5 -36 -11 -45 -29
-45 -15 0 -16 2 -3 10 12 8 13 13 3 29 -13 21 -7 33 17 28 9 -1 14 -11 12 -22z"/>
<path d="M1781 3535 c-24 -25 -54 -48 -68 -51 -34 -9 -143 3 -159 17 -23 19
-16 -6 7 -27 17 -15 36 -19 94 -19 66 0 77 3 110 30 21 17 49 45 63 63 38 50
4 40 -47 -13z"/>
<path d="M2230 3506 c0 -8 10 -16 23 -18 19 -3 22 -9 22 -43 0 -39 -1 -40 -39
-45 -37 -5 -48 -14 -60 -53 -11 -35 -81 -44 -163 -21 -17 5 -23 2 -23 -10 0
-10 -6 -13 -15 -10 -8 4 -15 18 -15 33 0 14 -4 32 -9 40 -15 24 -31 1 -31 -45
0 -39 4 -47 33 -64 34 -21 77 -27 77 -10 0 6 21 10 48 10 71 0 115 16 133 48
9 16 32 36 51 45 21 10 41 29 48 47 11 27 15 29 29 17 27 -24 80 -48 140 -63
44 -11 64 -23 94 -56 20 -22 40 -38 43 -35 18 18 -46 107 -77 107 -52 0 -146
43 -196 91 -39 37 -59 49 -82 49 -20 0 -31 -5 -31 -14z"/>
<path d="M2500 3271 c-6 -12 -17 -21 -25 -21 -7 0 -30 -17 -50 -39 -23 -24
-43 -37 -54 -34 -11 3 -24 -5 -35 -21 -14 -23 -24 -26 -70 -26 -47 0 -58 -4
-97 -39 -24 -21 -60 -46 -79 -56 -19 -9 -42 -23 -50 -31 -13 -11 -22 -11 -55
0 -96 33 -130 14 -43 -24 71 -31 74 -31 100 -10 13 10 40 25 60 33 19 8 54 31
76 51 34 31 46 36 89 36 63 0 129 35 174 91 26 33 37 39 63 37 29 -3 31 -1 31
31 0 40 -19 51 -35 22z"/>
<path d="M2146 3202 c-10 -16 21 -34 67 -39 34 -4 46 -1 61 16 24 27 14 39
-18 21 -22 -11 -49 -10 -89 6 -8 3 -18 1 -21 -4z"/>
<path d="M2442 3151 c-15 -15 -36 -43 -47 -62 -30 -50 -106 -88 -177 -89 -31
0 -69 -5 -85 -12 l-28 -11 48 -11 48 -11 -26 -25 c-32 -30 -55 -71 -55 -100 0
-31 14 -24 38 18 32 57 96 109 177 143 72 30 74 31 112 102 48 91 47 87 33 87
-6 0 -24 -13 -38 -29z"/>
<path d="M2682 2943 c-26 -38 -86 -159 -102 -206 -16 -49 -114 -151 -171 -177
-50 -22 -96 -25 -169 -9 -40 8 -68 25 -123 71 -89 75 -177 119 -177 88 0 -5
18 -19 39 -30 22 -10 63 -42 92 -71 75 -73 122 -99 195 -110 55 -8 74 -6 130
13 109 36 205 138 234 248 6 25 27 80 47 123 37 82 39 108 5 60z"/>
<path d="M3167 3650 c-10 -25 -29 -62 -42 -82 -33 -50 -12 -64 27 -18 29 35
42 80 36 121 -3 20 -6 17 -21 -21z"/>
</g>
</svg>
